<?xml version="1.0" encoding="utf-8"?>
<!-- Generator: Adobe Illustrator 15.0.2, SVG Export Plug-In . SVG Version: 6.00 Build 0)  -->
<!DOCTYPE svg PUBLIC "-//W3C//DTD SVG 1.1//EN" "http://www.w3.org/Graphics/SVG/1.1/DTD/svg11.dtd">
<svg version="1.1" id="Layer_1" xmlns="http://www.w3.org/2000/svg" xmlns:xlink="http://www.w3.org/1999/xlink" x="0px" y="0px"
	 width="170.35px" height="67.562px" viewBox="0 0 170.35 67.562" enable-background="new 0 0 170.35 67.562" xml:space="preserve">
<path fill="#FFFFFF" d="M15.487,41.425c-1.058-0.996-2.536-1.496-4.438-1.496c-1.357,0-2.552,0.287-3.578,0.86
	c-1.025,0.576-1.879,1.329-2.558,2.265c-0.68,0.937-1.194,2.002-1.541,3.191c-0.348,1.192-0.521,2.407-0.521,3.646
	c0,1.236,0.174,2.454,0.521,3.646c0.347,1.191,0.861,2.257,1.541,3.194c0.678,0.934,1.532,1.688,2.558,2.262
	c1.025,0.575,2.22,0.861,3.578,0.861c0.875,0,1.704-0.167,2.492-0.498c0.784-0.331,1.478-0.792,2.083-1.381
	c0.604-0.591,1.102-1.292,1.494-2.108c0.391-0.812,0.635-1.705,0.725-2.67h2.853c-0.394,2.837-1.436,5.048-3.125,6.634
	c-1.69,1.586-3.864,2.377-6.521,2.377c-1.781,0-3.358-0.325-4.732-0.974s-2.529-1.531-3.466-2.647
	c-0.938-1.116-1.646-2.423-2.127-3.918C0.24,53.176,0,51.584,0,49.894c0-1.691,0.24-3.284,0.726-4.777
	c0.481-1.492,1.19-2.8,2.127-3.918c0.936-1.116,2.092-2.008,3.466-2.672c1.374-0.665,2.952-0.998,4.731-0.998
	c2.507,0,4.627,0.665,6.363,1.995c1.738,1.328,2.771,3.336,3.103,6.021h-2.854C17.269,43.795,16.545,42.42,15.487,41.425z"/>
<path fill="#FFFFFF" d="M43.813,38.526c1.373,0.664,2.527,1.556,3.464,2.672c0.937,1.118,1.646,2.426,2.128,3.918
	c0.482,1.496,0.725,3.086,0.725,4.777c0,1.689-0.242,3.283-0.725,4.777c-0.482,1.492-1.192,2.801-2.128,3.915
	c-0.937,1.12-2.091,2.002-3.464,2.647c-1.374,0.648-2.95,0.977-4.732,0.977s-3.359-0.327-4.73-0.977
	c-1.375-0.646-2.529-1.527-3.466-2.647c-0.937-1.114-1.646-2.423-2.128-3.915c-0.483-1.496-0.725-3.088-0.725-4.777
	c0-1.691,0.241-3.284,0.725-4.777c0.482-1.492,1.192-2.8,2.128-3.918c0.938-1.116,2.093-2.008,3.466-2.672
	c1.373-0.665,2.949-0.998,4.73-0.998C40.864,37.528,42.441,37.861,43.813,38.526z M35.504,40.79
	c-1.027,0.575-1.879,1.329-2.559,2.265c-0.679,0.937-1.193,2.002-1.54,3.192c-0.348,1.192-0.521,2.408-0.521,3.646
	c0,1.237,0.173,2.454,0.521,3.645c0.347,1.193,0.861,2.258,1.54,3.194c0.679,0.933,1.531,1.689,2.559,2.262
	c1.026,0.576,2.22,0.86,3.577,0.86c1.359,0,2.551-0.286,3.579-0.86c1.025-0.571,1.878-1.329,2.557-2.262
	c0.682-0.938,1.194-2.001,1.541-3.194c0.347-1.189,0.521-2.406,0.521-3.645c0-1.239-0.175-2.454-0.521-3.646
	c-0.346-1.19-0.858-2.257-1.541-3.192c-0.678-0.936-1.53-1.688-2.557-2.265c-1.027-0.574-2.219-0.858-3.579-0.858
	C37.724,39.928,36.53,40.216,35.504,40.79z"/>
<path fill="#FFFFFF" d="M61.545,38.206v5.481h0.09c0.726-1.902,1.85-3.366,3.375-4.393c1.523-1.024,3.345-1.495,5.457-1.403v2.851
	c-1.299-0.06-2.476,0.113-3.531,0.524c-1.058,0.405-1.97,0.986-2.74,1.74s-1.366,1.652-1.788,2.696
	c-0.422,1.039-0.635,2.181-0.635,3.417v12.456h-2.854v-23.37H61.545z"/>
<path fill="#FFFFFF" d="M81.333,38.206v4.032h0.089c0.544-1.417,1.511-2.56,2.9-3.42c1.388-0.858,2.914-1.291,4.574-1.291
	c1.631,0,2.998,0.213,4.098,0.634c1.105,0.424,1.988,1.023,2.65,1.792c0.664,0.771,1.131,1.714,1.402,2.829
	c0.273,1.118,0.41,2.37,0.41,3.76V61.58h-2.852V46.995c0-0.997-0.09-1.926-0.271-2.787c-0.184-0.858-0.5-1.605-0.951-2.242
	c-0.453-0.632-1.066-1.131-1.834-1.493c-0.771-0.363-1.729-0.544-2.875-0.544c-1.148,0-2.168,0.205-3.058,0.611
	c-0.892,0.407-1.647,0.966-2.264,1.677c-0.619,0.71-1.102,1.558-1.449,2.536c-0.346,0.981-0.537,2.046-0.567,3.191v13.633h-2.853
	V38.206H81.333z"/>
<g>
	<g>
		<path fill="#FFFFFF" d="M140.257,42.488c-0.633-0.771-1.404-1.39-2.309-1.855c-0.906-0.47-1.934-0.701-3.078-0.701
			c-1.182,0-2.229,0.227-3.15,0.678c-0.92,0.455-1.695,1.064-2.33,1.835s-1.109,1.662-1.43,2.675
			c-0.312,1.013-0.459,2.058-0.43,3.147h14.721c0-1.091-0.176-2.132-0.52-3.126C141.382,44.141,140.89,43.258,140.257,42.488z
			 M123.546,49.53c-0.516,0.149-0.965,0.256-1.355,0.316c-1.209,0.213-2.457,0.398-3.736,0.565c-1.281,0.164-2.455,0.416-3.51,0.745
			c-1.059,0.334-1.924,0.81-2.605,1.428c-0.68,0.619-1.02,1.503-1.02,2.649c0,0.725,0.143,1.364,0.432,1.923
			c0.287,0.562,0.674,1.042,1.154,1.449c0.48,0.409,1.041,0.721,1.68,0.931c0.631,0.213,1.281,0.316,1.943,0.316
			c1.088,0,2.127-0.167,3.125-0.498s1.867-0.817,2.604-1.451c0.738-0.634,1.328-1.402,1.768-2.309
			c0.438-0.906,0.654-1.932,0.654-3.08v-3.714h-0.09C124.407,49.137,124.062,49.38,123.546,49.53z M102.788,0v67.562h67.562V0
			H102.788z M127.806,54.197c0.271,1.115,0.723,2.091,1.355,2.918c0.633,0.83,1.449,1.494,2.447,1.993
			c0.996,0.499,2.174,0.746,3.531,0.746c1.936,0,3.465-0.515,4.596-1.54c1.133-1.022,1.91-2.46,2.336-4.3h2.852
			c-0.604,2.656-1.766,4.686-3.486,6.09s-3.955,2.106-6.703,2.106c-2.084,0-3.857-0.478-5.324-1.428
			c-1.461-0.951-2.541-2.424-3.236-4.415h-0.09c-0.18,0.999-0.594,1.856-1.242,2.58c-0.65,0.728-1.436,1.33-2.355,1.812
			c-0.918,0.482-1.922,0.849-3.012,1.089c-1.086,0.239-2.143,0.361-3.17,0.361c-1.088,0-2.105-0.132-3.059-0.387
			s-1.783-0.664-2.492-1.222c-0.707-0.559-1.266-1.271-1.674-2.127c-0.408-0.86-0.613-1.878-0.613-3.062
			c0-1.629,0.363-2.904,1.088-3.825c0.727-0.921,1.684-1.624,2.875-2.104c1.189-0.481,2.537-0.823,4.029-1.022
			c1.496-0.191,3.014-0.384,4.553-0.565c0.605-0.058,1.135-0.132,1.588-0.226c0.449-0.089,0.826-0.249,1.131-0.477
			c0.301-0.228,0.535-0.534,0.699-0.925c0.166-0.396,0.25-0.907,0.25-1.542c0-0.967-0.158-1.756-0.475-2.379
			c-0.312-0.619-0.754-1.109-1.312-1.469c-0.561-0.362-1.205-0.612-1.945-0.747c-0.744-0.138-1.535-0.206-2.381-0.206
			c-1.812,0-3.289,0.433-4.438,1.293c-1.146,0.86-1.752,2.239-1.812,4.145h-2.852c0.088-1.355,0.377-2.537,0.859-3.531
			c0.479-0.998,1.139-1.812,1.969-2.444c0.83-0.637,1.803-1.105,2.922-1.406c1.117-0.306,2.355-0.454,3.713-0.454
			c0.785,0,1.607,0.069,2.469,0.204c0.859,0.136,1.66,0.379,2.398,0.725c0.74,0.349,1.373,0.839,1.902,1.472
			c0.527,0.636,0.865,1.449,1.02,2.446h0.092c0.303-0.813,0.74-1.522,1.312-2.128c0.572-0.603,1.23-1.11,1.969-1.518
			c0.738-0.408,1.531-0.709,2.379-0.907c0.844-0.195,1.688-0.296,2.533-0.296c1.934,0,3.541,0.364,4.822,1.089
			c1.287,0.724,2.32,1.696,3.104,2.919c0.785,1.223,1.346,2.627,1.678,4.215c0.332,1.583,0.5,3.222,0.5,4.912h-17.572
			C127.445,51.9,127.532,53.078,127.806,54.197z"/>
	</g>
</g>
</svg>
