<?xml version="1.0" encoding="utf-8"?>
<!-- Generator: Adobe Illustrator 15.0.2, SVG Export Plug-In . SVG Version: 6.00 Build 0)  -->
<!DOCTYPE svg PUBLIC "-//W3C//DTD SVG 1.1//EN" "http://www.w3.org/Graphics/SVG/1.1/DTD/svg11.dtd">
<svg version="1.1" id="Layer_1" xmlns="http://www.w3.org/2000/svg" xmlns:xlink="http://www.w3.org/1999/xlink" x="0px" y="0px"
	 width="30px" height="120px" viewBox="0 0 30 120" enable-background="new 0 0 30 120" xml:space="preserve">
<path fill="#FFFFFF" d="M16.973,56.594V45.752h-2.866V41.85h2.866c0,0,0-1.6,0-3.334c0-2.62,1.694-5.026,5.596-5.026
	c1.58,0,2.748,0.151,2.748,0.151l-0.094,3.645c0,0-1.188-0.011-2.49-0.011c-1.406,0-1.631,0.648-1.631,1.724
	c0,0.851,0-1.812,0,2.851h4.233l-0.185,3.902H21.1v10.842H16.973z"/>
<g opacity="0.5">
	<g>
		<path fill="#FFFFFF" d="M2.524,56.594h14.449V52.76H2.524V56.594z M21.096,52.76v3.834h6.398V52.76H21.096z"/>
	</g>
</g>
<path fill="#FFFFFF" d="M27.799,13.864c-0.89,0.151-2.179-0.007-2.861-0.291c1.42-0.118,2.381-0.763,2.75-1.638
	c-0.512,0.314-2.101,0.657-2.978,0.331c-0.042-0.206-0.091-0.402-0.14-0.58c-0.668-2.457-2.955-4.437-5.354-4.196
	c0.193-0.079,0.389-0.152,0.588-0.218c0.264-0.095,1.812-0.347,1.567-0.894c-0.206-0.482-2.101,0.362-2.455,0.473
	c0.47-0.177,1.248-0.48,1.332-1.022c-0.722,0.098-1.429,0.44-1.974,0.936c0.197-0.212,0.346-0.471,0.377-0.751
	c-1.922,1.23-3.045,3.707-3.953,6.112c-0.713-0.692-1.347-1.238-1.914-1.541C11.193,9.731,9.291,8.84,6.305,7.73
	c-0.092,0.988,0.488,2.305,2.159,3.179C8.102,10.86,7.44,10.97,6.912,11.096c0.215,1.134,0.92,2.068,2.829,2.519
	C8.87,13.67,8.418,13.871,8.01,14.298c0.397,0.788,1.367,1.716,3.109,1.525c-1.939,0.836-0.791,2.386,0.787,2.153
	c-2.689,2.785-6.933,2.578-9.369,0.252c6.36,8.676,20.188,5.129,22.247-3.227C26.329,15.015,27.236,14.467,27.799,13.864z"/>
<g>
	<path fill="#FFFFFF" d="M15.167,71.75l5.656,10.213h-2.104L15.19,75.68h-0.043l-3.53,6.283H9.512L15.167,71.75z"/>
</g>
<g>
	<path fill="#FFFFFF" d="M15.167,64.617l5.656,10.213h-2.104l-3.529-6.283h-0.043l-3.53,6.283H9.512L15.167,64.617z"/>
</g>
<rect opacity="0.01" fill="none" stroke="#FFFFFF" stroke-miterlimit="10" width="30" height="120"/>
</svg>
