<?xml version="1.0" encoding="utf-8"?>
<!-- Generator: Adobe Illustrator 15.0.2, SVG Export Plug-In . SVG Version: 6.00 Build 0)  -->
<!DOCTYPE svg PUBLIC "-//W3C//DTD SVG 1.1//EN" "http://www.w3.org/Graphics/SVG/1.1/DTD/svg11.dtd">
<svg version="1.1" id="Layer_1" xmlns="http://www.w3.org/2000/svg" xmlns:xlink="http://www.w3.org/1999/xlink" x="0px" y="0px"
	 width="669.629px" height="265.835px" viewBox="-74.348 0 669.629 265.835" enable-background="new -74.348 0 669.629 265.835"
	 xml:space="preserve">
<path fill="#56758F" d="M-13.408,162.99c-4.161-3.923-9.975-5.881-17.463-5.881c-5.344,0-10.041,1.131-14.076,3.387
	c-4.041,2.257-7.394,5.227-10.066,8.91c-2.672,3.686-4.697,7.871-6.06,12.562c-1.369,4.696-2.051,9.479-2.051,14.348
	c0,4.867,0.682,9.651,2.051,14.339c1.363,4.696,3.387,8.883,6.06,12.567c2.672,3.679,6.025,6.653,10.066,8.904
	c4.036,2.261,8.732,3.387,14.076,3.387c3.446,0,6.707-0.649,9.803-1.959c3.088-1.304,5.814-3.116,8.196-5.436
	c2.374-2.316,4.333-5.076,5.88-8.283c1.541-3.207,2.494-6.713,2.85-10.515H7.084c-1.548,11.171-5.643,19.869-12.298,26.105
	c-6.653,6.238-15.206,9.354-25.658,9.354c-7.011,0-13.216-1.277-18.621-3.83c-5.403-2.554-9.949-6.027-13.633-10.426
	c-3.684-4.393-6.476-9.53-8.374-15.41c-1.905-5.881-2.85-12.145-2.85-18.799s0.945-12.92,2.85-18.8
	c1.899-5.881,4.69-11.021,8.374-15.418c3.684-4.392,8.229-7.899,13.633-10.511c5.404-2.614,11.609-3.925,18.621-3.925
	c9.863,0,18.204,2.621,25.037,7.847c6.833,5.227,10.902,13.125,12.205,23.7H-4.856C-6.397,172.317-9.248,166.913-13.408,162.99z"/>
<path fill="#56758F" d="M98.048,151.588c5.405,2.611,9.948,6.119,13.633,10.511c3.684,4.397,6.476,9.537,8.373,15.419
	c1.899,5.88,2.852,12.145,2.852,18.799c0,6.653-0.953,12.917-2.852,18.799c-1.897,5.881-4.688,11.019-8.373,15.41
	c-3.684,4.4-8.229,7.872-13.633,10.426c-5.405,2.553-11.609,3.831-18.62,3.831c-7.012,0-13.216-1.278-18.621-3.831
	c-5.405-2.554-9.949-6.027-13.633-10.426c-3.684-4.393-6.476-9.53-8.374-15.41c-1.906-5.882-2.851-12.146-2.851-18.799
	c0-6.654,0.945-12.919,2.851-18.799c1.897-5.882,4.688-11.021,8.374-15.419c3.684-4.392,8.229-7.899,13.633-10.511
	c5.405-2.614,11.609-3.924,18.621-3.924C86.439,147.664,92.643,148.973,98.048,151.588z M65.351,160.497
	c-4.041,2.257-7.394,5.228-10.066,8.91c-2.672,3.686-4.696,7.871-6.06,12.562c-1.37,4.696-2.051,9.479-2.051,14.348
	c0,4.867,0.682,9.651,2.051,14.34c1.363,4.696,3.388,8.883,6.06,12.566c2.672,3.679,6.026,6.654,10.066,8.904
	c4.036,2.261,8.732,3.387,14.077,3.387c5.344,0,10.034-1.126,14.076-3.387c4.042-2.25,7.395-5.226,10.067-8.904
	c2.672-3.684,4.697-7.87,6.06-12.566c1.362-4.688,2.05-9.474,2.05-14.34c0-4.87-0.688-9.651-2.05-14.348
	c-1.363-4.689-3.387-8.876-6.06-12.562c-2.671-3.683-6.025-6.653-10.067-8.91c-4.041-2.257-8.731-3.386-14.076-3.386
	C74.082,157.111,69.387,158.24,65.351,160.497z"/>
<path fill="#56758F" d="M167.812,150.336V171.9h0.358c2.85-7.481,7.276-13.241,13.275-17.283c5.994-4.034,13.156-5.882,21.472-5.524
	v11.226c-5.114-0.238-9.743,0.442-13.897,2.05c-4.161,1.601-7.753,3.89-10.783,6.859c-3.029,2.968-5.377,6.502-7.038,10.605
	c-1.667,4.093-2.494,8.584-2.494,13.452v49.001h-11.232v-91.951L167.812,150.336L167.812,150.336z"/>
<path fill="#56758F" d="M245.679,150.336V166.2h0.35c2.143-5.582,5.94-10.068,11.41-13.454c5.457-3.386,11.458-5.081,17.992-5.081
	c6.417,0,11.794,0.835,16.127,2.494c4.34,1.666,7.812,4.016,10.426,7.046c2.611,3.028,4.456,6.739,5.521,11.131
	c1.072,4.398,1.609,9.326,1.609,14.791v59.16h-11.226v-57.376c0-3.922-0.356-7.573-1.073-10.959
	c-0.714-3.387-1.958-6.324-3.744-8.824c-1.778-2.494-4.185-4.452-7.214-5.881c-3.032-1.421-6.801-2.136-11.313-2.136
	c-4.518,0-8.525,0.801-12.032,2.406c-3.506,1.603-6.476,3.804-8.909,6.596c-2.434,2.792-4.333,6.119-5.703,9.975
	c-1.363,3.864-2.109,8.051-2.222,12.562v53.638h-11.231v-91.95h11.231V150.336z"/>
<g>
	<g>
		<path fill="#56758F" d="M407.486,194.885c-2.024,0.596-3.804,1.013-5.345,1.251c-4.758,0.834-9.658,1.574-14.705,2.229
			c-5.048,0.647-9.651,1.634-13.812,2.936c-4.162,1.311-7.573,3.183-10.246,5.615c-2.672,2.435-4.008,5.907-4.008,10.426
			c0,2.851,0.563,5.371,1.693,7.567c1.132,2.203,2.646,4.102,4.545,5.701c1.897,1.608,4.101,2.825,6.597,3.659
			c2.493,0.834,5.046,1.244,7.658,1.244c4.28,0,8.373-0.649,12.296-1.96c3.924-1.302,7.337-3.207,10.246-5.7
			c2.912-2.494,5.227-5.524,6.952-9.089c1.72-3.566,2.579-7.602,2.579-12.119v-14.612h-0.356
			C410.871,193.344,409.503,194.298,407.486,194.885z M481.081,189.899c0-4.28-0.688-8.376-2.052-12.298
			c-1.368-3.922-3.301-7.394-5.794-10.423c-2.494-3.029-5.525-5.464-9.088-7.303c-3.561-1.844-7.602-2.765-12.11-2.765
			c-4.638,0-8.765,0.893-12.39,2.671c-3.624,1.787-6.682,4.188-9.174,7.217c-2.496,3.031-4.367,6.537-5.619,10.519
			c-1.241,3.981-1.812,8.102-1.691,12.382H481.081L481.081,189.899z M329.446,0l-1,265.835h265.835l1-265.835H329.446z
			 M424.234,213.243c1.071,4.398,2.852,8.229,5.343,11.488c2.495,3.274,5.703,5.881,9.626,7.847
			c3.923,1.957,8.552,2.938,13.898,2.938c7.599,0,13.631-2.02,18.083-6.061c4.456-4.033,7.515-9.676,9.182-16.927h11.226
			c-2.376,10.459-6.954,18.441-13.721,23.965c-6.774,5.53-15.564,8.29-26.372,8.29c-8.196,0-15.181-1.874-20.942-5.611
			c-5.761-3.744-10.007-9.538-12.739-17.377h-0.356c-0.708,3.923-2.343,7.311-4.896,10.16c-2.56,2.851-5.647,5.226-9.268,7.124
			c-3.624,1.905-7.572,3.328-11.853,4.28c-4.272,0.945-8.434,1.423-12.471,1.423c-4.277,0-8.285-0.503-12.031-1.517
			c-3.744-1.005-7.012-2.611-9.803-4.81c-2.79-2.195-4.987-4.984-6.588-8.373c-1.607-3.387-2.408-7.395-2.408-12.031
			c0-6.417,1.43-11.43,4.279-15.056c2.854-3.624,6.621-6.383,11.311-8.286c4.69-1.899,9.983-3.236,15.862-4.01
			c5.88-0.768,11.848-1.515,17.906-2.229c2.375-0.233,4.457-0.529,6.237-0.886c1.781-0.357,3.267-0.98,4.458-1.873
			c1.185-0.894,2.103-2.109,2.759-3.651c0.655-1.547,0.979-3.566,0.979-6.058c0-3.806-0.624-6.92-1.872-9.362
			c-1.243-2.434-2.972-4.363-5.167-5.786c-2.195-1.429-4.749-2.407-7.659-2.943c-2.916-0.529-6.034-0.801-9.362-0.801
			c-7.122,0-12.942,1.693-17.459,5.08c-4.512,3.386-6.886,8.817-7.123,16.304h-11.227c0.356-5.344,1.482-9.981,3.387-13.897
			c1.897-3.922,4.478-7.131,7.745-9.624c3.27-2.495,7.099-4.34,11.496-5.525c4.392-1.188,9.268-1.786,14.613-1.786
			c3.088,0,6.322,0.272,9.711,0.808c3.385,0.532,6.534,1.481,9.443,2.853c2.911,1.363,5.405,3.294,7.483,5.787
			c2.076,2.494,3.411,5.702,4.015,9.626h0.35c1.189-3.209,2.909-5.999,5.172-8.374c2.258-2.375,4.834-4.364,7.747-5.974
			c2.909-1.601,6.032-2.791,9.358-3.565c3.32-0.769,6.647-1.158,9.974-1.158c7.602,0,13.931,1.429,18.978,4.28
			c5.056,2.851,9.115,6.681,12.211,11.488c3.09,4.818,5.287,10.34,6.589,16.578c1.31,6.237,1.965,12.68,1.965,19.335h-69.143
			C422.813,204.214,423.163,208.85,424.234,213.243z"/>
	</g>
</g>
</svg>
